<?xml version="1.0" encoding="UTF-8" standalone="no"?>
<!-- Created with Inkscape (http://www.inkscape.org/) -->

<svg
   width="13mm"
   height="13mm"
   viewBox="0 0 13 13"
   version="1.1"
   id="svg5"
   inkscape:version="1.1.1 (3bf5ae0d25, 2021-09-20)"
   sodipodi:docname="TSJS.svg"
   xmlns:inkscape="http://www.inkscape.org/namespaces/inkscape"
   xmlns:sodipodi="http://sodipodi.sourceforge.net/DTD/sodipodi-0.dtd"
   xmlns="http://www.w3.org/2000/svg"
   xmlns:svg="http://www.w3.org/2000/svg">
  <sodipodi:namedview
     id="namedview7"
     pagecolor="#ffffff"
     bordercolor="#111111"
     borderopacity="1"
     inkscape:pageshadow="0"
     inkscape:pageopacity="0"
     inkscape:pagecheckerboard="1"
     inkscape:document-units="mm"
     showgrid="false"
     inkscape:snap-nodes="false"
     inkscape:zoom="8.3856039"
     inkscape:cx="56.704324"
     inkscape:cy="7.6917537"
     inkscape:window-width="1920"
     inkscape:window-height="1017"
     inkscape:window-x="-8"
     inkscape:window-y="-8"
     inkscape:window-maximized="1"
     inkscape:current-layer="layer1" />
  <defs
     id="defs2" />
  <g
     inkscape:label="Layer 1"
     inkscape:groupmode="layer"
     id="layer1">
    <path
       d="M 0.12698371,0.30546903 H 6.4769837 V 6.6554693 H 0.12698371 Z M 5.9568127,5.140994 c -0.0463,-0.289719 -0.23495,-0.533136 -0.794544,-0.760148 -0.194733,-0.09128 -0.411162,-0.154782 -0.475456,-0.301625 -0.02408,-0.08731 -0.02778,-0.134938 -0.01217,-0.186532 0.03969,-0.17092 0.242094,-0.22225 0.400844,-0.174625 0.103187,0.03175 0.198437,0.111125 0.258233,0.238125 C 5.6072987,3.777331 5.6072987,3.777331 5.7980637,3.658533 5.7266237,3.547408 5.6911717,3.499519 5.6430177,3.452158 5.4763297,3.265627 5.2543447,3.170377 4.8931887,3.178579 l -0.186531,0.02355 c -0.178859,0.04366 -0.34925,0.138906 -0.452438,0.265906 -0.301625,0.341577 -0.214577,0.93689 0.150548,1.182952 0.361156,0.269875 0.889265,0.329142 0.956733,0.583407 0.0635,0.309562 -0.230187,0.4087813 -0.520171,0.373062 C 4.6267527,5.559826 4.5079547,5.45241 4.3769867,5.253973 L 3.8927987,5.53205 c 0.05556,0.1270003 0.119063,0.1822983 0.214313,0.2934233 0.460375,0.464608 1.611312,0.440796 1.817952,-0.2656423 0.0077,-0.02381 0.0635,-0.186531 0.01958,-0.436562 z M 3.5800607,3.224087 h -0.594784 c 0,0.512763 -0.0024,1.02235 -0.0024,1.535907 0,0.325966 0.01667,0.62521 -0.03651,0.717285 -0.08731,0.1822983 -0.312208,0.1590153 -0.414337,0.127 C 2.4272537,5.552419 2.3740727,5.480983 2.3124247,5.37806 2.2957547,5.35028 2.2833247,5.3262 2.2788247,5.3262 l -0.482865,0.297656 c 0.0807,0.1666883 0.198438,0.3100923 0.350309,0.4013733 0.226218,0.134938 0.530225,0.178594 0.848518,0.107156 0.207169,-0.05979 0.385763,-0.182827 0.479161,-0.373327 0.134937,-0.2460623 0.106362,-0.5476873 0.105039,-0.8852963 0.0032,-0.543454 0,-1.087172 0,-1.63486 z"
       id="path836"
       style="fill:#ffff00;stroke-width:0.264583" />
    <path
       d="m 6.7000912,6.5078423 c -0.164836,0 -0.2976575,0.13282 -0.2976575,0.297656 v 5.7546867 c 0,0.164836 0.1328215,0.297657 0.2976575,0.297657 h 5.7546868 c 0.164836,0 0.297656,-0.132821 0.297656,-0.297657 V 6.8054983 c 0,-0.164836 -0.13282,-0.297656 -0.297656,-0.297656 z m 4.5939598,2.579687 c 0.161925,0 0.305329,0.0098 0.430477,0.02937 a 1.6880417,1.6880417 0 0 1 0.345546,0.08996 v 0.650346 a 1.0451042,1.0451042 0 0 0 -0.170127,-0.09552 1.3475229,1.3475229 0 0 0 -0.189706,-0.06879 1.4427729,1.4427729 0 0 0 -0.377296,-0.05292 c -0.07937,0 -0.151606,0.0074 -0.216694,0.02275 a 0.555625,0.555625 0 0 0 -0.164835,0.06403 c -0.04498,0.02752 -0.07937,0.06059 -0.103982,0.09896 a 0.23495,0.23495 0 0 0 -0.03704,0.129645 c 0,0.05186 0.01402,0.09869 0.04127,0.1399647 0.02752,0.04128 0.06668,0.08043 0.117211,0.117475 0.05054,0.03704 0.111919,0.07302 0.18415,0.108479 0.07223,0.03572 0.153987,0.0725 0.245004,0.110067 0.124354,0.05212 0.236008,0.107685 0.334963,0.166158 0.09895,0.05874 0.183885,0.125148 0.254793,0.199231 0.07091,0.07382 0.124884,0.158221 0.162454,0.253207 0.03757,0.09499 0.05662,0.205316 0.05662,0.331523 0,0.173831 -0.03307,0.320145 -0.09869,0.43815 a 0.80248125,0.80248125 0 0 1 -0.267757,0.287073 1.158875,1.158875 0 0 1 -0.393436,0.157691 c -0.149754,0.03175 -0.30771,0.04763 -0.473604,0.04763 a 2.6236083,2.6236083 0 0 1 -0.486833,-0.04339 1.46685,1.46685 0 0 1 -0.40005,-0.13044 v -0.695854 a 1.3316479,1.3316479 0 0 0 0.856456,0.3175 c 0.08811,0 0.1651,-0.0079 0.230717,-0.02381 0.06588,-0.01588 0.12065,-0.0381 0.164835,-0.06615 0.04392,-0.02858 0.07673,-0.06191 0.09869,-0.100542 a 0.27066875,0.27066875 0 0 0 -0.01958,-0.28813 0.56091667,0.56091667 0 0 0 -0.142082,-0.132292 1.4808729,1.4808729 0 0 0 -0.213518,-0.117475 7.33425,7.33425 0 0 0 -0.266436,-0.115358 c -0.242887,-0.101336 -0.423862,-0.225425 -0.543189,-0.37174 -0.119063,-0.146315 -0.178859,-0.323321 -0.178859,-0.53049 0,-0.1624537 0.03254,-0.3018887 0.09763,-0.4185697 0.06509,-0.116682 0.153458,-0.212725 0.265642,-0.288132 a 1.1890375,1.1890375 0 0 1 0.388938,-0.166423 1.9939,1.9939 0 0 1 0.468312,-0.05318 z m -3.9986478,0.04974 h 2.5302109 v 0.573087 H 8.9175642 V 12.262527 H 8.1986912 V 9.7103563 h -0.903288 z"
       id="path857"
       style="fill:#0000ff;stroke-width:0.264583" />
    <path
       d="m 9.8164419,0.12695038 c -0.05186,0 -0.103716,0.01323 -0.150283,0.04048 L 7.1777529,1.6033244 a 0.30030208,0.30030208 0 0 0 -0.150284,0.260085 v 2.8752274 c 0,0.1074208 0.05715,0.2066396 0.150284,0.26035 l 1.531143,0.8847667 V 3.9406534 h -0.810947 v -0.514085 h 2.2071541 v 0.514085 H 9.2941549 V 6.221891 l 0.372004,0.2148416 c 0.09287,0.05371 0.207433,0.05371 0.300567,0 L 10.579765,6.0827201 A 1.0472208,1.0472208 0 0 1 10.263588,5.7088639 L 10.740103,5.433168 c 0.09551,0.1561042 0.213254,0.2804584 0.391583,0.3307292 L 11.70689,5.4315805 C 11.67329,5.2812972 11.522211,5.2138285 11.28779,5.1114347 L 11.141476,5.0484637 C 10.719201,4.868547 10.439007,4.643122 10.439007,4.1663432 c 0,-0.43868 0.334698,-0.773113 0.85725,-0.773113 0.372004,0 0.639498,0.129646 0.83185,0.468313 l -0.455877,0.292364 c -0.100277,-0.179916 -0.209021,-0.250825 -0.375973,-0.250825 -0.17145,0 -0.280458,0.108479 -0.280458,0.250825 0,0.175419 0.109008,0.2465919 0.359833,0.3553356 l 0.146314,0.062706 c 0.353484,0.1516062 0.596636,0.3055937 0.708025,0.5574771 l 0.22569,-0.1304396 c 0.09313,-0.05371 0.150283,-0.1529292 0.150283,-0.26035 V 1.8639379 c 0,-0.10742 -0.05715,-0.206904 -0.150283,-0.26035 L 9.9667259,0.16742988 a 0.3000375,0.3000375 0 0 0 -0.150284,-0.0404795 z"
       id="path930"
       style="stroke-width:0.264583;fill:#00ffff" />
    <path
       d="m 3.1863643,13.082389 c -0.084931,0 -0.1695979,-0.02222 -0.2439458,-0.06535 L 2.1656018,12.557456 c -0.1158875,-0.06482 -0.059267,-0.08784 -0.021167,-0.101335 0.1547812,-0.05371 0.186002,-0.06615 0.3513666,-0.159809 0.017198,-0.0098 0.039952,-0.0061 0.057679,0.0045 l 0.5969,0.354277 c 0.021696,0.01191 0.052123,0.01191 0.071967,0 l 2.3270104,-1.343025 c 0.021696,-0.01243 0.035454,-0.03731 0.035454,-0.06297 V 8.5635708 c 0,-0.02619 -0.014023,-0.0508 -0.036248,-0.06403 l -2.325952,-1.341967 c -0.021431,-0.01243 -0.050006,-0.01243 -0.071702,0 l -2.325423,1.342231 c -0.02249,0.01296 -0.036777,0.03836 -0.036777,0.06377 v 2.6855212 c 0,0.02567 0.014288,0.05001 0.036777,0.06218 l 0.6373813,0.3683 c 0.3458104,0.173037 0.5577417,-0.03069 0.5577417,-0.23548 V 8.7927038 c 0,-0.03757 0.030162,-0.06694 0.067733,-0.06694 h 0.2950104 c 0.036777,0 0.067469,0.02963 0.067469,0.06694 v 2.6513892 c 0,0.461698 -0.2513542,0.726282 -0.688975,0.726282 -0.1344084,0 -0.2405063,0 -0.5360459,-0.145786 L 0.6151435,11.673483 C 0.464331,11.586435 0.3711976,11.423452 0.3711976,11.249092 V 8.5635708 c 0,-0.17436 0.093398,-0.337344 0.2439459,-0.424127 l 2.3270104,-1.344613 c 0.1473729,-0.08334 0.3429,-0.08334 0.48895,0 l 2.3267458,1.344613 c 0.1508125,0.08705 0.244475,0.249767 0.244475,0.424127 v 2.6855212 c 0,0.17436 -0.093662,0.336814 -0.244475,0.424391 l -2.3267458,1.343554 c -0.074083,0.04313 -0.1584854,0.06535 -0.2447396,0.06535 z m 1.8788063,-2.647685 c 0,-0.5027083 -0.339725,-0.6365874 -1.0548938,-0.7310437 C 3.2876997,9.6081453 3.2141456,9.5586687 3.2141456,9.3895998 c 0,-0.1397 0.062177,-0.326231 0.5974291,-0.326231 0.4781021,0 0.6543146,0.102923 0.7268105,0.4251853 0.00635,0.030427 0.034131,0.052652 0.065352,0.052652 h 0.3018896 c 0.018785,0 0.036512,-0.0082 0.049213,-0.021431 0.0127,-0.014288 0.019579,-0.032544 0.017727,-0.051858 C 4.9257348,8.9128208 4.556906,8.6540578 3.8115748,8.6540578 c -0.6635751,0 -1.0593917,0.27993 -1.0593917,0.749565 0,0.5093229 0.3937,0.6500812 1.0305521,0.7130522 0.762,0.07461 0.821002,0.186002 0.821002,0.335756 0,0.260086 -0.2087562,0.370946 -0.6990291,0.370946 -0.6156854,0 -0.7511521,-0.154517 -0.7966604,-0.460904 -0.00529,-0.03281 -0.033338,-0.05688 -0.06694,-0.05688 H 2.7402768 c -0.037306,0 -0.067204,0.02963 -0.067204,0.06694 0,0.392112 0.2132541,0.859366 1.2316354,0.859366 0.7376583,2.65e-4 1.1604625,-0.289983 1.1604624,-0.79719 z"
       id="path987"
       style="stroke-width:0.264583;fill:#00ff00" />
  </g>
</svg>
